<?xml version="1.0" standalone="no"?>
<!DOCTYPE svg PUBLIC "-//W3C//DTD SVG 20010904//EN"
 "http://www.w3.org/TR/2001/REC-SVG-20010904/DTD/svg10.dtd">
<svg version="1.0" xmlns="http://www.w3.org/2000/svg"
 width="512.000000pt" height="512.000000pt" viewBox="0 0 512.000000 512.000000"
 preserveAspectRatio="xMidYMid meet">
<metadata>
Created by potrace 1.11, written by Peter Selinger 2001-2013
</metadata>
<g transform="translate(0.000000,512.000000) scale(0.100000,-0.100000)"
fill="#000000" stroke="none">
<path d="M2255 5109 c-124 -15 -310 -55 -441 -95 -398 -120 -739 -323 -1043
-619 -395 -385 -643 -856 -743 -1412 -20 -115 -23 -159 -23 -423 0 -264 3
-308 23 -423 81 -449 262 -849 539 -1192 97 -120 296 -316 413 -407 338 -262
724 -432 1157 -510 115 -20 159 -23 423 -23 264 0 308 3 423 23 356 64 691
195 972 380 159 104 256 182 399 321 390 381 639 856 738 1408 20 114 22 160
23 423 0 265 -3 308 -23 423 -78 433 -248 819 -510 1157 -91 117 -287 316
-407 413 -342 276 -746 459 -1186 537 -102 18 -170 23 -389 25 -146 2 -301 -1
-345 -6z"/>
</g>
</svg>
